<svg xmlns="http://www.w3.org/2000/svg" width="1280" height="720" viewBox="0 0 1280 720" role="img" aria-labelledby="title desc">
  <title id="title">TUI Replay terminal UI preview</title>
  <desc id="desc">A terminal user interface for replaying tui-test traces, with top controls, a terminal render area, event rail, frame cards, and source details.</desc>
  <rect width="1280" height="720" fill="#101214"/>
  <rect x="32" y="28" width="1216" height="664" rx="14" fill="#15181b" stroke="#323840"/>

  <rect x="48" y="44" width="1184" height="42" rx="8" fill="#23282d" stroke="#3a424a"/>
  <text x="68" y="70" fill="#f2f5f8" font-family="SFMono-Regular, Menlo, Consolas, monospace" font-size="16" font-weight="700">TUI Replay</text>
  <text x="202" y="70" fill="#aab4bf" font-family="SFMono-Regular, Menlo, Consolas, monospace" font-size="13">tests/tui/mcp-gateway-claude-vm.tui.test.ts:179</text>
  <text x="776" y="70" fill="#dfe5eb" font-family="SFMono-Regular, Menlo, Consolas, monospace" font-size="13">[space play] [speed up/down 1x] [frame left/right 1/22] [q]</text>

  <rect x="48" y="104" width="1184" height="384" rx="8" fill="#090d12" stroke="#262d35"/>
  <text x="70" y="136" fill="#f5f7fa" font-family="SFMono-Regular, Menlo, Consolas, monospace" font-size="15">[accomplish-agent-runtime] 2026-05-25T08:29:39.530Z loaded tenant-platform config in 3ms</text>
  <text x="70" y="160" fill="#f5f7fa" font-family="SFMono-Regular, Menlo, Consolas, monospace" font-size="15">[accomplish-agent-runtime] 2026-05-25T08:29:39.534Z VM readiness: status=starting, ready=false</text>
  <text x="70" y="184" fill="#f5f7fa" font-family="SFMono-Regular, Menlo, Consolas, monospace" font-size="15">[accomplish-agent-runtime] 2026-05-25T08:29:40.937Z VM readiness: status=unavailable</text>
  <text x="70" y="208" fill="#f5f7fa" font-family="SFMono-Regular, Menlo, Consolas, monospace" font-size="15">reason=vmctl ready failed with status 1: failed to read VM /ready: Input/output error</text>
  <rect x="70" y="224" width="9" height="20" fill="#f5f7fa">
    <animate attributeName="opacity" values="1;1;0;0;1" dur="1.1s" repeatCount="indefinite"/>
  </rect>

  <rect x="48" y="508" width="1184" height="24" rx="5" fill="#0d1117" stroke="#2f3740"/>
  <rect x="64" y="516" width="1012" height="8" rx="4" fill="#333c45"/>
  <rect x="64" y="516" width="386" height="8" rx="4" fill="#77bdfb"/>
  <rect x="64" y="512" width="2" height="16" fill="#aab4bf"/>
  <rect x="250" y="512" width="2" height="16" fill="#aab4bf"/>
  <rect x="448" y="512" width="2" height="16" fill="#aab4bf"/>
  <rect x="760" y="512" width="2" height="16" fill="#aab4bf"/>
  <rect x="1068" y="512" width="2" height="16" fill="#aab4bf"/>
  <circle cx="450" cy="520" r="8" fill="#77bdfb"/>
  <text x="1104" y="525" fill="#dfe5eb" font-family="SFMono-Regular, Menlo, Consolas, monospace" font-size="13">window 1-7 / 22</text>

  <rect x="48" y="548" width="172" height="78" rx="8" fill="#20262d" stroke="#77bdfb" stroke-width="2"/>
  <text x="64" y="572" fill="#f3f6f9" font-family="SFMono-Regular, Menlo, Consolas, monospace" font-size="13">1 | 0ms</text>
  <text x="64" y="596" fill="#aab4bf" font-family="SFMono-Regular, Menlo, Consolas, monospace" font-size="12">empty terminal</text>

  <rect x="234" y="548" width="172" height="78" rx="8" fill="#181d22" stroke="#343c45"/>
  <text x="250" y="572" fill="#f3f6f9" font-family="SFMono-Regular, Menlo, Consolas, monospace" font-size="13">2 | 578ms</text>
  <text x="250" y="596" fill="#aab4bf" font-family="SFMono-Regular, Menlo, Consolas, monospace" font-size="12">loaded config</text>

  <rect x="420" y="548" width="172" height="78" rx="8" fill="#181d22" stroke="#343c45"/>
  <text x="436" y="572" fill="#f3f6f9" font-family="SFMono-Regular, Menlo, Consolas, monospace" font-size="13">3 | 582ms</text>
  <text x="436" y="596" fill="#aab4bf" font-family="SFMono-Regular, Menlo, Consolas, monospace" font-size="12">VM readiness</text>

  <rect x="606" y="548" width="172" height="78" rx="8" fill="#181d22" stroke="#343c45"/>
  <text x="622" y="572" fill="#f3f6f9" font-family="SFMono-Regular, Menlo, Consolas, monospace" font-size="13">4 | 1.02s</text>
  <text x="622" y="596" fill="#aab4bf" font-family="SFMono-Regular, Menlo, Consolas, monospace" font-size="12">checking ready</text>

  <rect x="792" y="548" width="172" height="78" rx="8" fill="#181d22" stroke="#343c45"/>
  <text x="808" y="572" fill="#f3f6f9" font-family="SFMono-Regular, Menlo, Consolas, monospace" font-size="13">5 | 11.36s</text>
  <text x="808" y="596" fill="#aab4bf" font-family="SFMono-Regular, Menlo, Consolas, monospace" font-size="12">OAuth start</text>

  <rect x="978" y="548" width="172" height="78" rx="8" fill="#181d22" stroke="#343c45"/>
  <text x="994" y="572" fill="#f3f6f9" font-family="SFMono-Regular, Menlo, Consolas, monospace" font-size="13">6 | 13.21s</text>
  <text x="994" y="596" fill="#aab4bf" font-family="SFMono-Regular, Menlo, Consolas, monospace" font-size="12">OAuth done</text>

  <rect x="48" y="644" width="1184" height="28" rx="7" fill="#1f252b" stroke="#343c45"/>
  <text x="66" y="663" fill="#dfe5eb" font-family="SFMono-Regular, Menlo, Consolas, monospace" font-size="13">source: tests/tui/mcp-gateway-claude-vm.tui.test.ts:179</text>
  <text x="604" y="663" fill="#aab4bf" font-family="SFMono-Regular, Menlo, Consolas, monospace" font-size="13">assertions: 82, 107, 111, 115, 153</text>
</svg>
